<svg xmlns="http://www.w3.org/2000/svg" viewBox="0 0 410 404" fill="none">
	<path d="M399.6 59.7 223.7 369.2c-6.1 10.5-21.2 11.1-28 1.1L10.4 115.8c-6.8-9.9 1.2-23.3 12.6-21l175.7 34.8c5 .9 10-1.2 12.4-5.7L281.6 9.7c4.6-7.9 16.2-8.6 21.6-1.3l97.4 127.6c3.6 4.7 3.9 11.1.9 16.1Z" fill="#646CFF"/>
	<path d="M295.1 87.5 201.9 243c-3 5.1-9.8 6.2-14.3 2.5l-60.6-50.2c-3.5-2.9-8.3-3.6-12.5-2L61.9 213.9c-7.9 3.1-15.4-5.7-11.1-13.1L135 69.8c3-5.1 9.8-6.2 14.3-2.5l60.6 50.2c3.5 2.9 8.3 3.6 12.5 2L273 98.9c7.9-3.1 15.4 5.7 11.1 13.1Z" fill="#FFD026"/>
</svg>
