<svg width="1024" height="1024" viewBox="0 0 1024 1024" fill="none" xmlns="http://www.w3.org/2000/svg">
<path d="M333.2 734C303.2 734 277.2 729 255.2 719C233.2 709 216.2 694.8 204.2 676.4C192.6 657.6 186.6 635.6 186.2 610.4H261.2C261.2 628.4 267.6 642.6 280.4 653C293.6 663 311.4 668 333.8 668C355.4 668 372.2 663 384.2 653C396.6 643 402.8 629.2 402.8 611.6C402.8 596.8 398.4 584 389.6 573.2C381.2 562 369 554.4 353 550.4L302.6 536.6C268.2 527.8 241.6 512 222.8 489.2C204.4 466.4 195.2 438.8 195.2 406.4C195.2 381.6 200.8 360 212 341.6C223.2 323.2 239 309 259.4 299C280.2 289 304.6 284 332.6 284C375 284 408.6 295 433.4 317C458.2 338.6 470.8 367.8 471.2 404.6H396.2C396.2 387.4 390.6 374 379.4 364.4C368.2 354.4 352.4 349.4 332 349.4C312.4 349.4 297.2 354 286.4 363.2C275.6 372.4 270.2 385.4 270.2 402.2C270.2 417.4 274.2 430.4 282.2 441.2C290.6 451.6 302.6 459 318.2 463.4L370.4 477.8C405.2 486.6 431.8 502.4 450.2 525.2C468.6 547.6 477.8 575.4 477.8 608.6C477.8 633.4 471.8 655.4 459.8 674.6C447.8 693.4 431 708 409.4 718.4C387.8 728.8 362.4 734 333.2 734ZM694.166 734C666.166 734 641.566 728.8 620.366 718.4C599.566 707.6 583.366 692.6 571.766 673.4C560.566 653.8 554.966 630.8 554.966 604.4V413.6C554.966 386.8 560.566 363.8 571.766 344.6C583.366 325.4 599.566 310.6 620.366 300.2C641.566 289.4 666.166 284 694.166 284C722.566 284 746.966 289.4 767.366 300.2C788.166 310.6 804.366 325.4 815.966 344.6C827.566 363.8 833.366 386.8 833.366 413.6H757.766C757.766 392.8 752.166 377 740.966 366.2C730.166 355.4 714.566 350 694.166 350C673.766 350 657.966 355.4 646.766 366.2C635.566 377 629.966 392.6 629.966 413V604.4C629.966 624.8 635.566 640.6 646.766 651.8C657.966 662.6 673.766 668 694.166 668C714.566 668 730.166 662.6 740.966 651.8C752.166 640.6 757.766 624.8 757.766 604.4H833.366C833.366 630.4 827.566 653.2 815.966 672.8C804.366 692.4 788.166 707.6 767.366 718.4C746.966 728.8 722.566 734 694.166 734Z" fill="#FAFAFA" style="fill:#FAFAFA;fill:color(display-p3 0.9804 0.9804 0.9804);fill-opacity:1;"/>
</svg>
